<svg width="1280" height="400" viewBox="0 0 1280 400" fill="none" xmlns="http://www.w3.org/2000/svg" font-family="-apple-system, BlinkMacSystemFont, 'Segoe UI', 'PingFang SC', 'Microsoft YaHei', sans-serif">
  <defs>
    <linearGradient id="bg" x1="0" y1="0" x2="1280" y2="400" gradientUnits="userSpaceOnUse">
      <stop offset="0" stop-color="#1A0810"/>
      <stop offset="0.55" stop-color="#260B18"/>
      <stop offset="1" stop-color="#1A0810"/>
    </linearGradient>
    <linearGradient id="accent" x1="0" y1="0" x2="1" y2="1">
      <stop offset="0" stop-color="#FF6B9D"/>
      <stop offset="0.5" stop-color="#FF4D6D"/>
      <stop offset="1" stop-color="#FF8A3D"/>
    </linearGradient>
    <radialGradient id="glow" cx="0.5" cy="0.5" r="0.5">
      <stop offset="0" stop-color="#FF4D6D" stop-opacity="0.30"/>
      <stop offset="1" stop-color="#FF4D6D" stop-opacity="0"/>
    </radialGradient>
  </defs>

  <rect width="1280" height="400" fill="url(#bg)"/>
  <ellipse cx="1040" cy="150" rx="420" ry="300" fill="url(#glow)"/>
  <ellipse cx="180" cy="380" rx="340" ry="220" fill="url(#glow)" opacity="0.55"/>

  <g stroke="#3A1422" stroke-width="1" opacity="0.6">
    <path d="M0 80 H1280 M0 160 H1280 M0 240 H1280 M0 320 H1280"/>
    <path d="M160 0 V400 M320 0 V400 M480 0 V400 M640 0 V400 M800 0 V400 M960 0 V400 M1120 0 V400"/>
  </g>

  <text x="96" y="116" font-size="66" font-weight="800" fill="#FFFFFF" letter-spacing="-1">爆款内容 skill</text>

  <g transform="translate(96,150)">
    <rect x="0" y="0" width="620" height="56" rx="12" fill="#220A14" stroke="#4A1A2C"/>
    <circle cx="26" cy="28" r="6" fill="#FF5F57"/>
    <circle cx="48" cy="28" r="6" fill="#FEBC2E"/>
    <circle cx="70" cy="28" r="6" fill="#28C840"/>
    <text x="100" y="35" font-size="22" fill="#FFB3C8" font-family="'SF Mono','JetBrains Mono',monospace">npx skills add viral-content-skill</text>
  </g>

  <text x="100" y="262" font-size="26" fill="#FFD6E2" font-weight="500">让你的 AI 写出真正能爆的中文社媒内容</text>
  <rect x="96" y="284" width="120" height="4" rx="2" fill="url(#accent)"/>

  <g font-size="17" font-weight="600">
    <g transform="translate(96,318)">
      <rect width="120" height="40" rx="20" fill="#2A0E1A" stroke="#4A1A2C"/>
      <text x="60" y="26" text-anchor="middle" fill="#FFB3C8">小红书</text>
    </g>
    <g transform="translate(232,318)">
      <rect width="100" height="40" rx="20" fill="#2A0E1A" stroke="#4A1A2C"/>
      <text x="50" y="26" text-anchor="middle" fill="#FFB3C8">抖音</text>
    </g>
    <g transform="translate(348,318)">
      <rect width="110" height="40" rx="20" fill="#2A0E1A" stroke="#4A1A2C"/>
      <text x="55" y="26" text-anchor="middle" fill="#FFB3C8">视频号</text>
    </g>
    <g transform="translate(474,318)">
      <rect width="110" height="40" rx="20" fill="#2A0E1A" stroke="#4A1A2C"/>
      <text x="55" y="26" text-anchor="middle" fill="#FFB3C8">公众号</text>
    </g>
  </g>

  <!-- decorative: phone card with engagement icons -->
  <g transform="translate(980,96)" opacity="0.97">
    <rect x="0" y="0" width="190" height="210" rx="20" fill="#220A14" stroke="#4A1A2C"/>
    <rect x="20" y="20" width="150" height="84" rx="10" fill="#33101F"/>
    <path d="M95 50 a14 14 0 1 1 -0.1 0 M95 50 l0 32" stroke="url(#accent)" stroke-width="0" fill="none"/>
    <path d="M78 74 c0 -14 17 -16 17 -4 c0 -12 17 -10 17 4 c0 12 -17 22 -17 22 c0 0 -17 -10 -17 -22 z" fill="url(#accent)"/>
    <rect x="20" y="120" width="130" height="9" rx="4.5" fill="#4A1A2C"/>
    <rect x="20" y="138" width="96" height="8" rx="4" fill="#3A1422"/>
    <g transform="translate(20,166)" fill="#FFB3C8" font-size="15" font-weight="700">
      <text x="0" y="14">❤ 9.9w</text>
      <text x="96" y="14">⭐ 2.1w</text>
    </g>
  </g>
</svg>
